<svg version="1.1" xmlns="http://www.w3.org/2000/svg" xmlns:xlink="http://www.w3.org/1999/xlink" width="104.1492" height="104.28709" viewBox="0,0,104.1492,104.28709"><g transform="translate(-188.41425,-125.53492)"><g data-paper-data="{&quot;isPaintingLayer&quot;:true}" fill-rule="nonzero" stroke="none" stroke-linecap="butt" stroke-linejoin="miter" stroke-miterlimit="10" stroke-dasharray="" stroke-dashoffset="0" style="mix-blend-mode: normal"><path d="M188.41425,229.68412v-104.1492h104.1492v104.1492z" fill="#1ed760" stroke-width="0"/><path d="M206.96232,172.11834c0,-17.40895 14.75423,-31.52168 32.95449,-31.52168c18.20026,0 32.95449,14.11273 32.95449,31.52168c0,2.79827 -0.3812,5.51137 -1.09663,8.09439c-2.11449,-1.78118 -4.52845,-3.21818 -7.15554,-4.22464c0.19598,-1.26121 0.29769,-2.5536 0.29769,-3.86975c0,-13.80712 -11.19288,-25 -25,-25c-13.80712,0 -25,11.19288 -25,25c0,0.81891 0.03938,1.62861 0.11633,2.42734c-2.67837,1.18118 -5.11024,2.81876 -7.19706,4.81419c-0.57145,-2.32515 -0.87376,-4.74957 -0.87376,-7.24153z" fill="#006c2b" stroke-width="0"/><path d="M206.86753,168.27251c0,-17.40895 14.75423,-31.52168 32.95449,-31.52168c18.20026,0 32.95449,14.11273 32.95449,31.52168c0,2.79827 -0.3812,5.51137 -1.09663,8.09439c-2.11449,-1.78118 -4.52845,-3.21818 -7.15554,-4.22464c0.19598,-1.26121 0.29769,-2.5536 0.29769,-3.86975c0,-13.80712 -11.19288,-25 -25,-25c-13.80712,0 -25,11.19288 -25,25c0,0.81891 0.03938,1.62861 0.11633,2.42734c-2.67837,1.18118 -5.11024,2.81876 -7.19706,4.81419c-0.57145,-2.32515 -0.87376,-4.74957 -0.87376,-7.24153z" fill="#004f08" stroke-width="0"/><g fill="#00a83b" stroke-width="0"><path d="M246.23012,165.11694c-1.81501,-3.44203 -0.49605,-7.70371 2.94598,-9.51873c3.44203,-1.81501 7.70371,-0.49605 9.51873,2.94598c1.81501,3.44203 0.49605,7.70371 -2.94598,9.51873c-3.44203,1.81501 -7.70371,0.49605 -9.51873,-2.94598zM249.24827,166.65702l8.88776,-4.48281l-8.55217,-5.50099z"/><path d="M256.27496,162.12304l-6.05911,3.06136l0.17093,-6.94586z"/><path d="M254.83325,172.22493l-2.5665,-4.86717l4.86717,-2.5665l2.5665,4.86717z"/><path d="M247.089,157.53855c-0.47267,-0.89639 -1.86448,-3.53584 -1.86448,-3.53584l4.86717,-2.5665c0,0 1.36572,2.58998 1.83909,3.48769c0.29771,0.56458 -4.55174,3.16469 -4.84178,2.61465z"/><g><path d="M244.57008,168.99809c0,0 1.62509,-2.52154 2.17377,-3.37289c0.33431,-0.51873 5.01416,2.37705 4.70504,2.85669c-0.54425,0.84448 -2.25374,3.49697 -2.25374,3.49697z"/><path d="M252.74903,156.30735l2.98078,-4.62507l4.62507,2.98078l-2.98078,4.62507z"/></g><g><path d="M242.27813,158.67742l5.49815,0.21586l-0.21586,5.49815l-5.49815,-0.21586c0,0 0.07755,-1.97516 0.11456,-2.9179c0.03481,-0.88652 0.1013,-2.58026 0.1013,-2.58026z"/><path d="M258.86131,159.32848c1.01235,0.03974 4.00137,0.15709 4.00137,0.15709l-0.21586,5.49815c0,0 -2.91692,-0.11452 -3.9312,-0.15434c-0.64035,-0.02514 -0.47348,-5.52522 0.14569,-5.50091z"/></g></g><path d="" fill="#00bd13" stroke-width="0"/><path d="" fill="#00bd13" stroke-width="0"/><path d="" fill="#00ff1b" stroke-width="NaN"/><path d="M207.03018,164.61928c0,-17.40895 14.75423,-31.52168 32.95449,-31.52168c18.20026,0 32.95449,14.11273 32.95449,31.52168c0,2.79827 -0.3812,5.51137 -1.09663,8.09439c-2.11449,-1.78118 -4.52845,-3.21818 -7.15554,-4.22464c0.19598,-1.26121 0.29769,-2.5536 0.29769,-3.86975c0,-13.80712 -11.19288,-25 -25,-25c-13.80712,0 -25,11.19288 -25,25c0,0.81891 0.03938,1.62861 0.11633,2.42734c-2.67837,1.18118 -5.11024,2.81876 -7.19706,4.81419c-0.57145,-2.32515 -0.87376,-4.74957 -0.87376,-7.24153z" fill="#00260f" stroke-width="0"/><path d="M197.40498,182.27744l1.89148,-11.72123c0,0 4.99205,-4.01209 6.23198,-4.16541c3.88025,-0.4798 13.98275,-1.72901 13.98275,-1.72901l3.45802,27.96548c0,0 -10.56424,1.3063 -14.45674,1.78762c-1.20208,0.14864 -6.24682,-2.64246 -6.24682,-2.64246z" fill="#00260f" stroke-width="0"/><path d="M278.32423,191.47383c0,0 -4.86868,3.08797 -6.07749,3.01152c-3.91433,-0.24754 -14.5378,-0.91936 -14.5378,-0.91936l1.77843,-28.12229c0,0 10.15915,0.64246 14.06115,0.88922c1.24688,0.07885 6.47006,3.78504 6.47006,3.78504l2.58946,11.58705z" data-paper-data="{&quot;index&quot;:null}" fill="#00260f" stroke-width="0"/><path d="M193.10222,229.2866l21.32836,-6.3965l8.9973,-6.3748l2.21317,-16.81398l28.71789,-0.75573l2.37073,15.64266l7.2981,6.63014l23.92856,8.60362z" fill="#1cc657" stroke-width="0"/><path d="M224.89284,200.34837l-5.93248,-15.53483l-1.62485,-20.9984l45.34229,0.50382l-1.78318,19.25748l-4.76651,16.77193l-7.24096,9.72455l-8.38331,3.87867l-7.33544,-2.12408z" fill="#19b550" stroke-width="0"/><path d="M224.39427,185.26136l-0.54829,-2.19316l6.40055,1.38005l6.21011,-1.19729l-0.73105,2.37592l-5.13815,0.97766z" fill="#24ff70" stroke-width="0"/><path d="M249.76518,186.8527l-5.13815,-0.97767l-0.73105,-2.37592l6.21012,1.19729l6.40056,-1.38005l-0.54829,2.19316z" data-paper-data="{&quot;index&quot;:null}" fill="#24ff70" stroke-width="0"/><g fill="#19b550" stroke-width="0"><path d="M221.12044,160.24872c2.07766,-6.63502 9.14069,-10.32948 15.7757,-8.25182c6.63502,2.07766 10.32948,9.14069 8.25182,15.7757c-2.07766,6.63502 -9.14069,10.32948 -15.7757,8.25182c-6.63502,-2.07766 -10.32948,-9.14069 -8.25182,-15.7757zM232.85412,155.40257c-4.67045,0.19422 -8.64336,3.96774 -8.44109,8.97065c0.20227,5.00291 4.05826,8.68793 9.14648,8.47633c5.08822,-0.2116 8.17172,-4.19345 7.96979,-9.18812c-0.20194,-4.99467 -4.00473,-8.45308 -8.67518,-8.25886z"/><path d="M227.43707,162.43305c0.97635,-3.11796 4.33588,-4.84142 7.50372,-3.84945c3.16785,0.99197 4.94441,4.32372 3.96806,7.44168c-0.97635,3.11796 -4.33588,4.84142 -7.50372,3.84945c-3.16785,-0.99197 -4.94441,-4.32372 -3.96806,-7.44168zM233.02097,160.17763c-2.22632,0.08139 -4.1124,1.84867 -4.00524,4.20345c0.10716,2.35478 1.95349,4.09721 4.37896,4.00854c2.42547,-0.08867 3.88706,-1.9559 3.78007,-4.30681c-0.10699,-2.35091 -1.92747,-3.98657 -4.15379,-3.90519z"/><path d="M232.94811,153.8354l1.81026,-5.78106l6.32303,1.97997l-1.81026,5.78106z"/><path d="M225.31335,178.08417l1.81026,-5.78106l6.32303,1.97997l-1.81026,5.78106z"/><g><path d="M240.22444,156.60389l5.36787,-2.80778l3.07101,5.87111l-5.36787,2.80778z"/><path d="M217.67939,168.35177l5.36787,-2.80778l3.07101,5.87111l-5.36787,2.80778z"/></g><g><path d="M243.4595,163.73877l5.78106,1.81026l-1.97997,6.32303l-5.78106,-1.81026z"/><path d="M219.21074,156.10401l5.78106,1.81026l-1.97997,6.32303l-5.78106,-1.81026z"/></g><g><path d="M240.71105,171.31893l2.80778,5.36787l-5.87111,3.07101l-2.80778,-5.36787z"/><path d="M228.96317,148.77388l2.80778,5.36787l-5.87111,3.07101l-2.80778,-5.36787z"/></g></g></g></g></svg>